<svg width="17" height="8" viewBox="0 0 17 8" fill="none" xmlns="http://www.w3.org/2000/svg">
<g clip-path="url(#clip0_209_532)">
<path d="M15.3998 4.56845C15.3643 4.60891 15.3257 4.64306 15.2852 4.67276L12.5722 7.77315C12.3075 8.07549 11.8781 8.07563 11.6134 7.77301C11.3486 7.47053 11.3486 6.97994 11.6134 6.67718L13.9498 4.00697L11.6013 1.32285C11.3365 1.02037 11.3365 0.52992 11.6013 0.227012C11.7338 0.0754867 11.9074 1.09673e-05 12.0807 1.09673e-05C12.2539 1.09673e-05 12.4277 0.0754867 12.56 0.227012L15.2852 3.34175C15.3257 3.37145 15.3645 3.4056 15.3998 3.44607C15.5351 3.60075 15.6004 3.80451 15.5972 4.00726C15.6004 4.21001 15.5351 4.41362 15.3998 4.56845Z" fill="black"/>
</g>
<rect y="3" width="10" height="2" rx="1" fill="black"/>
<defs>
<clipPath id="clip0_209_532">
<rect width="7" height="8" fill="white" transform="translate(17 8) rotate(-180)"/>
</clipPath>
</defs>
</svg>
