<svg width="50" height="50" viewBox="0 0 50 50" fill="none" xmlns="http://www.w3.org/2000/svg">
<rect width="50" height="50" rx="15" fill="#F3F3F3"/>
<g clip-path="url(#clip0_3_77)">
<path d="M33.8293 33.0207L29.182 28.4477C30.399 27.1255 31.1467 25.3768 31.1467 23.4526C31.1461 19.3364 27.7557 16 23.5731 16C19.3905 16 16.0001 19.3364 16.0001 23.4526C16.0001 27.5688 19.3905 30.9052 23.5731 30.9052C25.3803 30.9052 27.0378 30.2802 28.3397 29.241L33.0051 33.832C33.2324 34.056 33.6015 34.056 33.8288 33.832C34.0566 33.6081 34.0566 33.2447 33.8293 33.0207ZM23.5731 29.7586C20.0342 29.7586 17.1653 26.9353 17.1653 23.4526C17.1653 19.9699 20.0342 17.1466 23.5731 17.1466C27.1121 17.1466 29.9809 19.9699 29.9809 23.4526C29.9809 26.9353 27.1121 29.7586 23.5731 29.7586Z" fill="black"/>
</g>
<defs>
<clipPath id="clip0_3_77">
<rect width="18" height="18" fill="white" transform="translate(16 16)"/>
</clipPath>
</defs>
</svg>
