<svg width="50" height="50" viewBox="0 0 50 50" fill="none" xmlns="http://www.w3.org/2000/svg">
<rect width="50" height="50" rx="15" fill="#666666"/>
<path d="M22.742 29.7598C21.7041 29.7598 20.8628 30.6011 20.8628 31.639C20.8628 32.6768 21.7041 33.5181 22.742 33.5181C23.7798 33.5181 24.6211 32.6768 24.6211 31.639C24.6212 30.6011 23.7798 29.7598 22.742 29.7598ZM22.742 32.683C22.1654 32.683 21.698 32.2156 21.698 31.639C21.698 31.0624 22.1654 30.595 22.742 30.595C23.3185 30.595 23.7859 31.0624 23.7859 31.639C23.786 32.2156 23.3185 32.683 22.742 32.683Z" fill="white"/>
<path d="M30.6763 29.7598C29.6384 29.7598 28.7971 30.6011 28.7971 31.639C28.7971 32.6768 29.6385 33.5181 30.6763 33.5181C31.7141 33.5181 32.5555 32.6768 32.5555 31.639C32.5555 30.6011 31.7141 29.7598 30.6763 29.7598ZM30.6763 32.683C30.0997 32.683 29.6323 32.2156 29.6323 31.639C29.6323 31.0624 30.0997 30.595 30.6763 30.595C31.2529 30.595 31.7203 31.0624 31.7203 31.639C31.7203 32.2156 31.2529 32.683 30.6763 32.683Z" fill="white"/>
<path d="M34.9149 18.7979C34.8279 18.7029 34.7089 18.6435 34.5808 18.6309L20.9881 18.443L20.6122 17.2946C20.3475 16.5269 19.6286 16.0086 18.8165 16H17.4176C17.187 16 17 16.187 17 16.4176C17 16.6482 17.187 16.8352 17.4176 16.8352H18.8165C19.2706 16.8452 19.6704 17.1368 19.8188 17.566L22.4705 25.563L22.2618 26.0432C22.0289 26.6437 22.0988 27.3196 22.4497 27.8597C22.7972 28.3902 23.3818 28.7176 24.0157 28.7367H32.1379C32.3686 28.7367 32.5555 28.5497 32.5555 28.3191C32.5555 28.0885 32.3686 27.9015 32.1379 27.9015H24.0156C23.6577 27.8925 23.3281 27.7042 23.1387 27.4004C22.9513 27.1002 22.9128 26.7305 23.0343 26.3981L23.2013 26.0223L31.9917 25.1036C32.9573 24.9972 33.7516 24.295 33.9753 23.3497L34.9776 19.1528C35.0228 19.032 34.9988 18.896 34.9149 18.7979ZM33.161 23.1618C33.0254 23.7703 32.5088 24.2191 31.8874 24.2684L23.2013 25.1662L21.2595 19.2782L34.0588 19.4661L33.161 23.1618Z" fill="white"/>
</svg>
